<?xml version="1.0" encoding="UTF-8" standalone="no"?>
<svg
   viewBox="0 0 512 512"
   version="1.1"
   id="svg8"
   sodipodi:docname="instagram.svg"
   inkscape:version="1.1.2 (0a00cf5339, 2022-02-04)"
   xmlns:inkscape="http://www.inkscape.org/namespaces/inkscape"
   xmlns:sodipodi="http://sodipodi.sourceforge.net/DTD/sodipodi-0.dtd"
   xmlns="http://www.w3.org/2000/svg"
   xmlns:svg="http://www.w3.org/2000/svg">
  <defs
     id="defs12" />
  <sodipodi:namedview
     id="namedview10"
     pagecolor="#505050"
     bordercolor="#ffffff"
     borderopacity="1"
     inkscape:pageshadow="0"
     inkscape:pageopacity="0"
     inkscape:pagecheckerboard="1"
     showgrid="false"
     inkscape:zoom="1.1892561"
     inkscape:cx="155.55943"
     inkscape:cy="210.21544"
     inkscape:window-width="1714"
     inkscape:window-height="1363"
     inkscape:window-x="1722"
     inkscape:window-y="36"
     inkscape:window-maximized="0"
     inkscape:current-layer="svg8" />
  <path
     style="fill:#ffffff;fill-opacity:1;stroke-width:1"
     d="m 256.00019,75.546887 c 58.57587,0 65.5136,0.224551 88.6484,1.283526 21.38881,0.979465 33.00367,4.564428 40.73472,7.578838 a 67.968411,68.197306 0 0 1 25.22386,16.465669 67.968411,68.197306 0 0 1 16.4104,25.30881 c 3.00429,7.7562 6.57809,19.41105 7.5534,40.8719 1.05542,23.21095 1.27922,30.17205 1.27922,88.94693 0,58.77487 -0.2238,65.73422 -1.27922,88.94693 -0.97618,21.46085 -4.54998,33.11482 -7.5534,40.8719 a 72.649012,72.893669 0 0 1 -41.63426,41.77447 c -7.73018,3.01441 -19.34591,6.60025 -40.73472,7.57884 -23.1287,1.05898 -30.06644,1.28353 -88.6484,1.28353 -58.58195,0 -65.51708,-0.22455 -88.64839,-1.28353 -21.38882,-0.97946 -33.00367,-4.5653 -40.73472,-7.57884 A 67.967541,68.196432 0 0 1 101.39322,411.1302 67.969282,68.19818 0 0 1 84.982816,385.82139 c -3.004292,-7.75621 -6.578094,-19.41105 -7.5534,-40.8719 -1.055421,-23.21008 -1.279219,-30.17206 -1.279219,-88.94693 0,-58.77488 0.223798,-65.73423 1.279219,-88.94693 0.976177,-21.46085 4.549108,-33.11482 7.5534,-40.8719 a 67.968411,68.197306 0 0 1 16.412144,-25.30969 67.969282,68.19818 0 0 1 25.22386,-16.465663 c 7.73018,-3.014409 19.3459,-6.600246 40.73472,-7.578837 23.13305,-1.058976 30.07079,-1.283527 88.6484,-1.283527 m 0,-39.660021 c -59.57904,0 -67.05232,0.253386 -90.44749,1.324593 -23.35075,1.06946 -39.29701,4.789853 -53.25086,10.231518 A 107.53451,107.89664 0 0 0 73.448076,72.830423 107.53451,107.89664 0 0 0 48.138002,111.81679 c -5.419047,14.00171 -9.126953,30.00168 -10.18847,53.43107 -1.071966,23.47395 -1.324501,30.9724 -1.324501,90.75208 0,59.77967 0.252535,67.27813 1.324501,90.75208 1.065871,23.42939 4.773777,39.42935 10.197178,53.43019 a 107.53538,107.89752 0 0 0 25.303107,38.98636 107.53276,107.8949 0 0 0 38.855513,25.38832 c 13.95472,5.44167 29.90098,9.16206 53.25086,10.23152 23.39865,1.07121 30.86932,1.3246 90.44749,1.3246 59.57816,0 67.05232,-0.25339 90.44748,-1.3246 23.35075,-1.06946 39.29701,-4.78985 53.25086,-10.23152 a 112.17505,112.55282 0 0 0 64.15862,-64.37468 c 5.4234,-14.00172 9.13131,-30.00168 10.19718,-53.43019 1.06761,-23.47745 1.32015,-30.97328 1.32015,-90.75208 0,-59.77881 -0.25254,-67.27813 -1.32015,-90.75208 -1.06587,-23.42939 -4.77378,-39.42936 -10.19718,-53.4302 A 107.53276,107.8949 0 0 0 438.55754,72.831297 107.53363,107.89577 0 0 0 399.69941,47.437735 c -13.95472,-5.437297 -29.90098,-9.15769 -53.25173,-10.222781 -23.39517,-1.075576 -30.86845,-1.328962 -90.44749,-1.328962 v 0 z"
     id="path2" />
  <path
     style="fill:#ffffff;fill-opacity:1;stroke-width:1"
     d="M 256.00019,142.96831 A 112.65225,113.03163 0 1 0 368.65245,255.99994 112.65225,113.03163 0 0 0 256.00019,142.96831 Z m 0,186.40236 a 73.124474,73.370732 0 1 1 73.12535,-73.37073 73.125344,73.371606 0 0 1 -73.12535,73.37073 z"
     id="path4" />
  <ellipse
     style="fill:#ffffff;fill-opacity:1;stroke-width:1"
     cx="373.10315"
     cy="138.50261"
     id="circle6"
     rx="26.324566"
     ry="26.413218" />
</svg>
